<svg xmlns="http://www.w3.org/2000/svg" width="46" height="51" fill="none"><g fill="#004677" clip-path="url(#a)"><path d="M34.54 19.63c.5 0 .9.4.9.9v11.49c0 .5-.4.9-.9.9s-.9-.4-.9-.9V20.53c0-.5.4-.9.9-.9m0-19.63c.5 0 .9.4.9.9v11.49c0 .5-.4.9-.9.9s-.9-.4-.9-.9V.9c0-.5.4-.9.9-.9m-9.82 15.56h7.25c.5 0 .9.4.9.9s-.4.9-.9.9h-7.25c-.5 0-.9-.4-.9-.9s.4-.9.9-.9m12.38 0h7.25c.5 0 .9.4.9.9s-.4.9-.9.9H37.1c-.5 0-.9-.4-.9-.9s.4-.9.9-.9"/><path d="M7.09 41.94c.5 0 .9.4.9.9v7.25c0 .5-.4.9-.9.9s-.9-.4-.9-.9v-7.25c0-.5.4-.9.9-.9m0-12.38c.5 0 .9.4.9.9v7.25c0 .5-.4.9-.9.9s-.9-.4-.9-.9v-7.25c0-.5.4-.9.9-.9M.9 39.38h4.57c.5 0 .9.4.9.9s-.4.9-.9.9H.9c-.5 0-.9-.4-.9-.9s.4-.9.9-.9m7.81 0h4.57c.5 0 .9.4.9.9s-.4.9-.9.9H8.71c-.5 0-.9-.4-.9-.9s.4-.9.9-.9" style="mix-blend-mode:multiply"/></g><defs><clipPath id="a"><path fill="#fff" d="M45.25 50.99H0V0h45.25z"/></clipPath></defs></svg>