<svg xmlns="http://www.w3.org/2000/svg" width="46" height="51" fill="none"><g fill="#004677" clip-path="url(#a)"><path d="M10.71 31.36c-.5 0-.9-.4-.9-.9V18.97c0-.5.4-.9.9-.9s.9.4.9.9v11.49c0 .5-.4.9-.9.9m0 19.63c-.5 0-.9-.4-.9-.9V38.6c0-.5.4-.9.9-.9s.9.4.9.9v11.49c0 .5-.4.9-.9.9m9.82-15.56h-7.25c-.5 0-.9-.4-.9-.9s.4-.9.9-.9h7.25c.5 0 .9.4.9.9s-.4.9-.9.9m-12.38 0H.9c-.5 0-.9-.4-.9-.9s.4-.9.9-.9h7.25c.5 0 .9.4.9.9s-.4.9-.9.9"/><path d="M38.16 9.05c-.5 0-.9-.4-.9-.9V.9c0-.5.4-.9.9-.9s.9.4.9.9v7.25c0 .5-.4.9-.9.9m0 12.38c-.5 0-.9-.4-.9-.9v-7.25c0-.5.4-.9.9-.9s.9.4.9.9v7.25c0 .5-.4.9-.9.9m6.19-9.82h-4.57c-.5 0-.9-.4-.9-.9s.4-.9.9-.9h4.57c.5 0 .9.4.9.9s-.4.9-.9.9m-7.81 0h-4.57c-.5 0-.9-.4-.9-.9s.4-.9.9-.9h4.57c.5 0 .9.4.9.9s-.4.9-.9.9" style="mix-blend-mode:multiply"/></g><defs><clipPath id="a"><path fill="#fff" d="M0 0h45.25v50.99H0z"/></clipPath></defs></svg>