<?xml version="1.0" encoding="UTF-8"?>
<svg viewBox="0 0 1280 47" xmlns="http://www.w3.org/2000/svg">
<path d="M23.7013 0H0V23.5H23.7013V0Z" fill="#287851"/>
<path d="M71.1037 0H47.4023V23.5H71.1037V0Z" fill="#287851"/>
<path d="M47.4027 23.5H23.7013V47H47.4027V23.5Z" fill="#287851"/>
<path d="M118.518 0H94.8164V23.5H118.518V0Z" fill="#287851"/>
<path d="M94.8166 23.5H71.1152V47H94.8166V23.5Z" fill="#287851"/>
<path d="M165.92 0H142.219V23.5H165.92V0Z" fill="#287851"/>
<path d="M142.219 23.5H118.518V47H142.219V23.5Z" fill="#287851"/>
<path d="M213.334 0H189.633V23.5H213.334V0Z" fill="#287851"/>
<path d="M189.631 23.5H165.93V47H189.631V23.5Z" fill="#287851"/>
<path d="M237.035 23.5H213.334V47H237.035V23.5Z" fill="#287851"/>
<path d="m17.323 4.5794c-0.32 0-0.288 0.23267-0.288 0.40189 0 0 0.0746 1.0576-1.76 0.89896-1.824-0.15864-3.5947 0.30671-3.9894 0.4442-0.3946 0.13749-2.1013 0.60283-2.976 2.221-0.864 1.6182-0.59733 2.2527-0.21333 2.9825 0.384 0.7191 1.4293 0.6874 1.856 0.5711 0.2987-0.0846 0.6613-0.2433 0.8107-0.4759 0 0 0.5653 0.5182 1.184 0.3807 0 0-0.9067 3.3843-2.1974 3.8708-0.61866 0.2327-0.48 0.2644-1.2693 0.1798 0 0-0.53333-0.2115-0.24533-0.7086 0 0 1.344-0.1375 0.896-1.2585 0 0-0.736-0.9096-1.8987 0.074 0 0-0.74667 0.7615-0.30933 1.6393 0.43733 0.8778 0.98133 1.0259 1.7173 1.248 0.352 0.1057 1.2693 0.0106 1.6427-0.0952 0 0 2.1333-0.4442 2.9226-2.9401 0 0 0.4374-1.3009 0.416-2.4748 0 0 0.5014-0.5394 0.9707-0.5288 0 0-0.256 1.0999 0.2667 1.0258 0 0 0.704-0.0317 0.9386-0.8143 0 0 0.3094-0.7509-0.1493-1.174 0 0-0.448-0.53935-2.0267 0.7298 0 0-0.128-0.79323 0.9814-2.1152 0 0 0.0746-0.30671-0.1387-0.35959 0 0-0.2773-0.08461-0.608 0.19037-0.3307 0.28555-1.0667 0.81435-1.7067 2.919 0 0-0.5653 0.275-0.896-0.1374 0 0 0.5867-0.6769 0.4907-1.0894-0.096-0.41245-0.2453-0.70858-0.736-0.71915-0.4907-0.01058-0.8427 0.64515-0.8533 0.76145 0 0.1164-0.1387 0.4231 0.192 1.0471 0 0-1.088 0.6134-1.3014-0.5712 0 0-0.384-1.7662 2.2934-2.4959 0 0 0.9493-0.27498 1.6426-0.28556 0.6934 0 0.992 0.01058 1.8134 0.05288 0.8533 0.04231 0.8746-0.02115 1.2693-0.11634 0 0 0.8-0.2644 1.1093-0.86723 0 0 0.736-1.1211 0.544-1.8825 0 0-0.064-0.51823-0.384-0.51823l-0.0106-0.01057z" fill="#fff"/>
<path d="M260.736 0H237.035V23.5H260.736V0Z" fill="#287851"/>
<path d="M308.151 0H284.449V23.5H308.151V0Z" fill="#287851"/>
<path d="M284.438 23.5H260.736V47H284.438V23.5Z" fill="#287851"/>
<path d="M355.553 0H331.852V23.5H355.553V0Z" fill="#287851"/>
<path d="M331.852 23.5H308.15V47H331.852V23.5Z" fill="#287851"/>
<path d="M402.965 0H379.264V23.5H402.965V0Z" fill="#287851"/>
<path d="M379.254 23.5H355.553V47H379.254V23.5Z" fill="#287851"/>
<path d="M426.666 23.5H402.965V47H426.666V23.5Z" fill="#287851"/>
<path d="m301.77 5.0659c-0.32 0-0.288 0.23267-0.288 0.40189 0 0 0.074 1.0576-1.76 0.89896-1.824-0.15864-3.595 0.30671-3.99 0.4442-0.394 0.13749-2.101 0.60283-2.976 2.221-0.864 1.6182-0.597 2.2527-0.213 2.9825 0.384 0.7192 1.429 0.6874 1.856 0.5711 0.299-0.0846 0.661-0.2433 0.811-0.4759 0 0 0.565 0.5182 1.184 0.3807 0 0-0.907 3.3844-2.198 3.8708-0.618 0.2327-0.48 0.2645-1.269 0.1798 0 0-0.533-0.2115-0.245-0.7086 0 0 1.344-0.1374 0.896-1.2585 0 0-0.736-0.9095-1.899 0.074 0 0-0.747 0.7615-0.309 1.6393 0.437 0.8778 0.981 1.0259 1.717 1.248 0.352 0.1058 1.269 0.0106 1.643-0.0952 0 0 2.133-0.4442 2.922-2.9401 0 0 0.438-1.3009 0.416-2.4748 0 0 0.502-0.5394 0.971-0.5288 0 0-0.256 1.0999 0.267 1.0258 0 0 0.704-0.0317 0.938-0.8143 0 0 0.31-0.7509-0.149-1.174 0 0-0.448-0.53934-2.027 0.7298 0 0-0.128-0.7932 0.982-2.1152 0 0 0.074-0.30671-0.139-0.35959 0 0-0.277-0.08461-0.608 0.19037-0.331 0.28555-1.067 0.81436-1.707 2.919 0 0-0.565 0.2749-0.896-0.1375 0 0 0.587-0.6769 0.491-1.0894-0.096-0.4124-0.245-0.70857-0.736-0.71914-0.491-0.01058-0.843 0.64514-0.853 0.76144 0 0.1164-0.139 0.4231 0.192 1.0471 0 0-1.088 0.6134-1.302-0.5711 0 0-0.384-1.7662 2.294-2.496 0 0 0.949-0.27498 1.642-0.28556 0.694 0 0.992 0.01058 1.814 0.05288 0.853 0.04231 0.874-0.02115 1.269-0.11633 0 0 0.8-0.26441 1.109-0.86724 0 0 0.736-1.1211 0.544-1.8825 0 0-0.064-0.51823-0.384-0.51823l-0.01-0.01057z" fill="#fff"/>
<path d="m372.82 29.01c-0.32 0-0.288 0.2327-0.288 0.4019 0 0 0.074 1.0576-1.76 0.899-1.824-0.1587-3.595 0.3067-3.99 0.4442-0.394 0.1375-2.101 0.6028-2.976 2.221-0.864 1.6181-0.597 2.2527-0.213 2.9824 0.384 0.7192 1.429 0.6874 1.856 0.5711 0.299-0.0846 0.661-0.2432 0.811-0.4759 0 0 0.565 0.5182 1.184 0.3807 0 0-0.907 3.3844-2.198 3.8709-0.618 0.2326-0.48 0.2644-1.269 0.1798 0 0-0.533-0.2116-0.245-0.7086 0 0 1.344-0.1375 0.896-1.2586 0 0-0.736-0.9095-1.899 0.074 0 0-0.747 0.7615-0.309 1.6393 0.437 0.8778 0.981 1.0259 1.717 1.248 0.352 0.1058 1.269 0.0106 1.643-0.0952 0 0 2.133-0.4442 2.922-2.9401 0 0 0.438-1.3009 0.416-2.4748 0 0 0.502-0.5394 0.971-0.5288 0 0-0.256 1.0999 0.267 1.0259 0 0 0.704-0.0318 0.938-0.8144 0 0 0.31-0.7509-0.149-1.1739 0 0-0.448-0.5394-2.027 0.7297 0 0-0.128-0.7932 0.982-2.1152 0 0 0.074-0.3067-0.139-0.3596 0 0-0.277-0.0846-0.608 0.1904-0.331 0.2855-1.067 0.8143-1.707 2.919 0 0-0.565 0.2749-0.896-0.1375 0 0 0.587-0.6769 0.491-1.0894-0.096-0.4124-0.245-0.7086-0.736-0.7191-0.491-0.0106-0.843 0.6451-0.853 0.7614 0 0.1164-0.139 0.4231 0.192 1.0471 0 0-1.088 0.6134-1.302-0.5711 0 0-0.384-1.7662 2.294-2.496 0 0 0.949-0.275 1.642-0.2855 0.694 0 0.992 0.0105 1.814 0.0528 0.853 0.0424 0.874-0.0211 1.269-0.1163 0 0 0.8-0.2644 1.109-0.8672 0 0 0.736-1.1211 0.544-1.8826 0 0-0.064-0.5182-0.384-0.5182l-0.01-0.0106z" fill="#fff"/>
<path d="m88.715 29.01c-0.32 0-0.288 0.2327-0.288 0.4019 0 0 0.0747 1.0576-1.76 0.899-1.824-0.1587-3.5947 0.3067-3.9893 0.4442-0.3947 0.1375-2.1014 0.6028-2.976 2.221-0.864 1.6181-0.5974 2.2527-0.2134 2.9824 0.384 0.7192 1.4294 0.6874 1.856 0.5711 0.2987-0.0846 0.6614-0.2432 0.8107-0.4759 0 0 0.5653 0.5182 1.184 0.3807 0 0-0.9067 3.3844-2.1973 3.8709-0.6187 0.2326-0.48 0.2644-1.2694 0.1798 0 0-0.5333-0.2116-0.2453-0.7086 0 0 1.344-0.1375 0.896-1.2586 0 0-0.736-0.9095-1.8987 0.074 0 0-0.7466 0.7615-0.3093 1.6393s0.9813 1.0259 1.7173 1.248c0.352 0.1058 1.2694 0.0106 1.6427-0.0952 0 0 2.1333-0.4442 2.9227-2.9401 0 0 0.4373-1.3009 0.416-2.4748 0 0 0.5013-0.5394 0.9706-0.5288 0 0-0.256 1.0999 0.2667 1.0259 0 0 0.704-0.0318 0.9387-0.8144 0 0 0.3093-0.7509-0.1494-1.1739 0 0-0.448-0.5394-2.0266 0.7297 0 0-0.128-0.7932 0.9813-2.1152 0 0 0.0747-0.3067-0.1387-0.3596 0 0-0.2773-0.0846-0.608 0.1904-0.3306 0.2855-1.0666 0.8143-1.7066 2.919 0 0-0.5654 0.2749-0.896-0.1375 0 0 0.5866-0.6769 0.4906-1.0894-0.096-0.4124-0.2453-0.7086-0.736-0.7191-0.4906-0.0106-0.8426 0.6451-0.8533 0.7614 0 0.1164-0.1387 0.4231 0.192 1.0471 0 0-1.088 0.6134-1.3013-0.5711 0 0-0.384-1.7662 2.2933-2.496 0 0 0.9493-0.275 1.6427-0.2855 0.6933 0 0.992 0.0105 1.8133 0.0528 0.8534 0.0424 0.8747-0.0211 1.2693-0.1163 0 0 0.8-0.2644 1.1094-0.8672 0 0 0.736-1.1211 0.544-1.8826 0 0-0.064-0.5182-0.384-0.5182l-0.0107-0.0106z" fill="#fff"/>
<path d="m230.22 29.01c-0.32 0-0.288 0.2327-0.288 0.4019 0 0 0.075 1.0576-1.76 0.899-1.824-0.1587-3.595 0.3067-3.989 0.4442-0.395 0.1375-2.102 0.6028-2.976 2.221-0.864 1.6181-0.598 2.2527-0.214 2.9824 0.384 0.7192 1.43 0.6874 1.856 0.5711 0.299-0.0846 0.662-0.2432 0.811-0.4759 0 0 0.565 0.5182 1.184 0.3807 0 0-0.907 3.3844-2.197 3.8709-0.619 0.2326-0.48 0.2644-1.27 0.1798 0 0-0.533-0.2116-0.245-0.7086 0 0 1.344-0.1375 0.896-1.2586 0 0-0.736-0.9095-1.899 0.074 0 0-0.746 0.7615-0.309 1.6393s0.981 1.0259 1.717 1.248c0.352 0.1058 1.27 0.0106 1.643-0.0952 0 0 2.133-0.4442 2.923-2.9401 0 0 0.437-1.3009 0.416-2.4748 0 0 0.501-0.5394 0.97-0.5288 0 0-0.256 1.0999 0.267 1.0259 0 0 0.704-0.0318 0.939-0.8144 0 0 0.309-0.7509-0.15-1.1739 0 0-0.448-0.5394-2.026 0.7297 0 0-0.128-0.7932 0.981-2.1152 0 0 0.075-0.3067-0.139-0.3596 0 0-0.277-0.0846-0.608 0.1904-0.33 0.2855-1.066 0.8143-1.706 2.919 0 0-0.566 0.2749-0.896-0.1375 0 0 0.586-0.6769 0.49-1.0894-0.096-0.4124-0.245-0.7086-0.736-0.7191-0.49-0.0106-0.842 0.6451-0.853 0.7614 0 0.1164-0.139 0.4231 0.192 1.0471 0 0-1.088 0.6134-1.301-0.5711 0 0-0.384-1.7662 2.293-2.496 0 0 0.949-0.275 1.643-0.2855 0.693 0 0.992 0.0105 1.813 0.0528 0.853 0.0424 0.875-0.0211 1.269-0.1163 0 0 0.8-0.2644 1.11-0.8672 0 0 0.736-1.1211 0.544-1.8826 0 0-0.064-0.5182-0.384-0.5182l-0.011-0.0106z" fill="#fff"/>
<path d="m159.23 5.0659c-0.32 0-0.288 0.23267-0.288 0.40189 0 0 0.074 1.0576-1.76 0.89896-1.824-0.15864-3.595 0.30671-3.99 0.4442-0.394 0.13749-2.101 0.60283-2.976 2.221-0.864 1.6182-0.597 2.2527-0.213 2.9825 0.384 0.7192 1.429 0.6874 1.856 0.5711 0.299-0.0846 0.661-0.2433 0.811-0.4759 0 0 0.565 0.5182 1.184 0.3807 0 0-0.907 3.3844-2.198 3.8708-0.618 0.2327-0.48 0.2645-1.269 0.1798 0 0-0.533-0.2115-0.245-0.7086 0 0 1.344-0.1374 0.896-1.2585 0 0-0.736-0.9095-1.899 0.074 0 0-0.747 0.7615-0.309 1.6393 0.437 0.8778 0.981 1.0259 1.717 1.248 0.352 0.1058 1.269 0.0106 1.643-0.0952 0 0 2.133-0.4442 2.922-2.9401 0 0 0.438-1.3009 0.416-2.4748 0 0 0.502-0.5394 0.971-0.5288 0 0-0.256 1.0999 0.267 1.0258 0 0 0.704-0.0317 0.938-0.8143 0 0 0.31-0.7509-0.149-1.174 0 0-0.448-0.53934-2.027 0.7298 0 0-0.128-0.7932 0.982-2.1152 0 0 0.074-0.30671-0.139-0.35959 0 0-0.277-0.08461-0.608 0.19037-0.331 0.28555-1.067 0.81436-1.707 2.919 0 0-0.565 0.2749-0.896-0.1375 0 0 0.587-0.6769 0.491-1.0894-0.096-0.4124-0.245-0.70857-0.736-0.71914-0.491-0.01058-0.843 0.64514-0.853 0.76144 0 0.1164-0.139 0.4231 0.192 1.0471 0 0-1.088 0.6134-1.302-0.5711 0 0-0.384-1.7662 2.294-2.496 0 0 0.949-0.27498 1.642-0.28556 0.694 0 0.992 0.01058 1.814 0.05288 0.853 0.04231 0.874-0.02115 1.269-0.11633 0 0 0.8-0.26441 1.109-0.86724 0 0 0.736-1.1211 0.544-1.8825 0 0-0.064-0.51823-0.384-0.51823l-0.01-0.01057z" fill="#fff"/>
<path d="M450.367 0H426.666V23.5H450.367V0Z" fill="#287851"/>
<path d="M497.77 0H474.068V23.5H497.77V0Z" fill="#287851"/>
<path d="M474.069 23.5H450.367V47H474.069V23.5Z" fill="#287851"/>
<path d="M545.184 0H521.482V23.5H545.184V0Z" fill="#287851"/>
<path d="M521.483 23.5H497.781V47H521.483V23.5Z" fill="#287851"/>
<path d="M592.586 0H568.885V23.5H592.586V0Z" fill="#287851"/>
<path d="M568.885 23.5H545.184V47H568.885V23.5Z" fill="#287851"/>
<path d="M640 0H616.299V23.5H640V0Z" fill="#287851"/>
<path d="m616.3 23.5h-23.701v23.5h23.701v-23.5z" fill="#287851"/>
<path d="M663.701 23.5H640V47H663.701V23.5Z" fill="#287851"/>
<path d="m443.99 4.5794c-0.32 0-0.288 0.23267-0.288 0.40189 0 0 0.074 1.0576-1.76 0.89896-1.824-0.15864-3.595 0.30671-3.99 0.4442-0.394 0.13749-2.101 0.60283-2.976 2.221-0.864 1.6182-0.597 2.2527-0.213 2.9825 0.384 0.7191 1.429 0.6874 1.856 0.5711 0.299-0.0846 0.661-0.2433 0.811-0.4759 0 0 0.565 0.5182 1.184 0.3807 0 0-0.907 3.3843-2.198 3.8708-0.618 0.2327-0.48 0.2644-1.269 0.1798 0 0-0.533-0.2115-0.245-0.7086 0 0 1.344-0.1375 0.896-1.2585 0 0-0.736-0.9096-1.899 0.074 0 0-0.747 0.7615-0.309 1.6393 0.437 0.8778 0.981 1.0259 1.717 1.248 0.352 0.1057 1.269 0.0106 1.643-0.0952 0 0 2.133-0.4442 2.922-2.9401 0 0 0.438-1.3009 0.416-2.4748 0 0 0.502-0.5394 0.971-0.5288 0 0-0.256 1.0999 0.267 1.0258 0 0 0.704-0.0317 0.938-0.8143 0 0 0.31-0.7509-0.149-1.174 0 0-0.448-0.53935-2.027 0.7298 0 0-0.128-0.79323 0.982-2.1152 0 0 0.074-0.30671-0.139-0.35959 0 0-0.277-0.08461-0.608 0.19037-0.331 0.28555-1.067 0.81435-1.707 2.919 0 0-0.565 0.275-0.896-0.1374 0 0 0.587-0.6769 0.491-1.0894-0.096-0.41245-0.245-0.70858-0.736-0.71915-0.491-0.01058-0.843 0.64515-0.853 0.76145 0 0.1164-0.139 0.4231 0.192 1.0471 0 0-1.088 0.6134-1.302-0.5712 0 0-0.384-1.7662 2.294-2.4959 0 0 0.949-0.27498 1.642-0.28556 0.694 0 0.992 0.01058 1.814 0.05288 0.853 0.04231 0.874-0.02115 1.269-0.11634 0 0 0.8-0.2644 1.109-0.86723 0 0 0.736-1.1211 0.544-1.8825 0 0-0.064-0.51823-0.384-0.51823l-0.01-0.01057z" fill="#fff"/>
<path d="M687.403 0H663.701V23.5H687.403V0Z" fill="#287851"/>
<path d="M734.817 0H711.115V23.5H734.817V0Z" fill="#287851"/>
<path d="m711.1 23.5h-23.701v23.5h23.701v-23.5z" fill="#287851"/>
<path d="M782.219 0H758.518V23.5H782.219V0Z" fill="#287851"/>
<path d="M758.518 23.5H734.816V47H758.518V23.5Z" fill="#287851"/>
<path d="M829.631 0H805.93V23.5H829.631V0Z" fill="#287851"/>
<path d="M805.92 23.5H782.219V47H805.92V23.5Z" fill="#287851"/>
<path d="M853.334 23.5H829.633V47H853.334V23.5Z" fill="#287851"/>
<path d="m728.44 5.0659c-0.32 0-0.288 0.23267-0.288 0.40189 0 0 0.074 1.0576-1.76 0.89896-1.824-0.15864-3.595 0.30671-3.989 0.4442-0.395 0.13749-2.102 0.60283-2.976 2.221-0.864 1.6182-0.598 2.2527-0.214 2.9825 0.384 0.7192 1.43 0.6874 1.856 0.5711 0.299-0.0846 0.662-0.2433 0.811-0.4759 0 0 0.565 0.5182 1.184 0.3807 0 0-0.907 3.3844-2.197 3.8708-0.619 0.2327-0.481 0.2645-1.27 0.1798 0 0-0.533-0.2115-0.245-0.7086 0 0 1.344-0.1374 0.896-1.2585 0 0-0.736-0.9095-1.899 0.074 0 0-0.747 0.7615-0.309 1.6393 0.437 0.8778 0.981 1.0259 1.717 1.248 0.352 0.1058 1.27 0.0106 1.643-0.0952 0 0 2.133-0.4442 2.922-2.9401 0 0 0.438-1.3009 0.417-2.4748 0 0 0.501-0.5394 0.97-0.5288 0 0-0.256 1.0999 0.267 1.0258 0 0 0.704-0.0317 0.938-0.8143 0 0 0.31-0.7509-0.149-1.174 0 0-0.448-0.53934-2.026 0.7298 0 0-0.129-0.7932 0.981-2.1152 0 0 0.074-0.30671-0.139-0.35959 0 0-0.277-0.08461-0.608 0.19037-0.331 0.28555-1.066 0.81436-1.706 2.919 0 0-0.566 0.2749-0.897-0.1375 0 0 0.587-0.6769 0.491-1.0894-0.096-0.4124-0.245-0.70857-0.736-0.71914-0.491-0.01058-0.842 0.64514-0.853 0.76144 0 0.1164-0.139 0.4231 0.192 1.0471 0 0-1.088 0.6134-1.301-0.5711 0 0-0.385-1.7662 2.293-2.496 0 0 0.949-0.27498 1.643-0.28556 0.693 0 0.991 0.01058 1.813 0.05288 0.853 0.04231 0.874-0.02115 1.269-0.11633 0 0 0.8-0.26441 1.11-0.86724 0 0 0.736-1.1211 0.544-1.8825 0 0-0.065-0.51823-0.385-0.51823l-0.01-0.01057z" fill="#fff"/>
<path d="m799.49 29.01c-0.32 0-0.288 0.2327-0.288 0.4019 0 0 0.074 1.0576-1.76 0.899-1.824-0.1587-3.595 0.3067-3.99 0.4442-0.394 0.1375-2.101 0.6028-2.976 2.221-0.864 1.6181-0.597 2.2527-0.213 2.9824 0.384 0.7192 1.429 0.6874 1.856 0.5711 0.299-0.0846 0.661-0.2432 0.811-0.4759 0 0 0.565 0.5182 1.184 0.3807 0 0-0.907 3.3844-2.198 3.8709-0.618 0.2326-0.48 0.2644-1.269 0.1798 0 0-0.533-0.2116-0.245-0.7086 0 0 1.344-0.1375 0.896-1.2586 0 0-0.736-0.9095-1.899 0.074 0 0-0.747 0.7615-0.309 1.6393 0.437 0.8778 0.981 1.0259 1.717 1.248 0.352 0.1058 1.269 0.0106 1.643-0.0952 0 0 2.133-0.4442 2.922-2.9401 0 0 0.438-1.3009 0.416-2.4748 0 0 0.502-0.5394 0.971-0.5288 0 0-0.256 1.0999 0.267 1.0259 0 0 0.704-0.0318 0.938-0.8144 0 0 0.31-0.7509-0.149-1.1739 0 0-0.448-0.5394-2.027 0.7297 0 0-0.128-0.7932 0.982-2.1152 0 0 0.074-0.3067-0.139-0.3596 0 0-0.277-0.0846-0.608 0.1904-0.331 0.2855-1.067 0.8143-1.707 2.919 0 0-0.565 0.2749-0.896-0.1375 0 0 0.587-0.6769 0.491-1.0894-0.096-0.4124-0.245-0.7086-0.736-0.7191-0.491-0.0106-0.843 0.6451-0.853 0.7614 0 0.1164-0.139 0.4231 0.192 1.0471 0 0-1.088 0.6134-1.302-0.5711 0 0-0.384-1.7662 2.294-2.496 0 0 0.949-0.275 1.642-0.2855 0.694 0 0.992 0.0105 1.814 0.0528 0.853 0.0424 0.874-0.0211 1.269-0.1163 0 0 0.8-0.2644 1.109-0.8672 0 0 0.736-1.1211 0.544-1.8826 0 0-0.064-0.5182-0.384-0.5182l-0.01-0.0106z" fill="#fff"/>
<path d="m515.38 29.01c-0.32 0-0.288 0.2327-0.288 0.4019 0 0 0.075 1.0576-1.76 0.899-1.824-0.1587-3.595 0.3067-3.989 0.4442-0.395 0.1375-2.102 0.6028-2.976 2.221-0.864 1.6181-0.598 2.2527-0.214 2.9824 0.384 0.7192 1.43 0.6874 1.856 0.5711 0.299-0.0846 0.662-0.2432 0.811-0.4759 0 0 0.565 0.5182 1.184 0.3807 0 0-0.907 3.3844-2.197 3.8709-0.619 0.2326-0.48 0.2644-1.27 0.1798 0 0-0.533-0.2116-0.245-0.7086 0 0 1.344-0.1375 0.896-1.2586 0 0-0.736-0.9095-1.899 0.074 0 0-0.746 0.7615-0.309 1.6393s0.981 1.0259 1.717 1.248c0.352 0.1058 1.27 0.0106 1.643-0.0952 0 0 2.133-0.4442 2.923-2.9401 0 0 0.437-1.3009 0.416-2.4748 0 0 0.501-0.5394 0.97-0.5288 0 0-0.256 1.0999 0.267 1.0259 0 0 0.704-0.0318 0.939-0.8144 0 0 0.309-0.7509-0.15-1.1739 0 0-0.448-0.5394-2.026 0.7297 0 0-0.128-0.7932 0.981-2.1152 0 0 0.075-0.3067-0.139-0.3596 0 0-0.277-0.0846-0.608 0.1904-0.33 0.2855-1.066 0.8143-1.706 2.919 0 0-0.566 0.2749-0.896-0.1375 0 0 0.586-0.6769 0.49-1.0894-0.096-0.4124-0.245-0.7086-0.736-0.7191-0.49-0.0106-0.842 0.6451-0.853 0.7614 0 0.1164-0.139 0.4231 0.192 1.0471 0 0-1.088 0.6134-1.301-0.5711 0 0-0.384-1.7662 2.293-2.496 0 0 0.949-0.275 1.643-0.2855 0.693 0 0.992 0.0105 1.813 0.0528 0.853 0.0424 0.875-0.0211 1.269-0.1163 0 0 0.8-0.2644 1.11-0.8672 0 0 0.736-1.1211 0.544-1.8826 0 0-0.064-0.5182-0.384-0.5182l-0.011-0.0106z" fill="#fff"/>
<path d="m656.88 29.01c-0.32 0-0.288 0.2327-0.288 0.4019 0 0 0.075 1.0576-1.76 0.899-1.824-0.1587-3.595 0.3067-3.989 0.4442-0.395 0.1375-2.102 0.6028-2.976 2.221-0.864 1.6181-0.598 2.2527-0.214 2.9824 0.384 0.7192 1.43 0.6874 1.856 0.5711 0.299-0.0846 0.662-0.2432 0.811-0.4759 0 0 0.565 0.5182 1.184 0.3807 0 0-0.907 3.3844-2.197 3.8709-0.619 0.2326-0.48 0.2644-1.27 0.1798 0 0-0.533-0.2116-0.245-0.7086 0 0 1.344-0.1375 0.896-1.2586 0 0-0.736-0.9095-1.899 0.074 0 0-0.746 0.7615-0.309 1.6393s0.981 1.0259 1.717 1.248c0.352 0.1058 1.27 0.0106 1.643-0.0952 0 0 2.133-0.4442 2.923-2.9401 0 0 0.437-1.3009 0.416-2.4748 0 0 0.501-0.5394 0.97-0.5288 0 0-0.256 1.0999 0.267 1.0259 0 0 0.704-0.0318 0.939-0.8144 0 0 0.309-0.7509-0.15-1.1739 0 0-0.448-0.5394-2.026 0.7297 0 0-0.128-0.7932 0.981-2.1152 0 0 0.075-0.3067-0.139-0.3596 0 0-0.277-0.0846-0.608 0.1904-0.33 0.2855-1.066 0.8143-1.706 2.919 0 0-0.566 0.2749-0.896-0.1375 0 0 0.586-0.6769 0.49-1.0894-0.096-0.4124-0.245-0.7086-0.736-0.7191-0.49-0.0106-0.842 0.6451-0.853 0.7614 0 0.1164-0.139 0.4231 0.192 1.0471 0 0-1.088 0.6134-1.301-0.5711 0 0-0.384-1.7662 2.293-2.496 0 0 0.949-0.275 1.643-0.2855 0.693 0 0.992 0.0105 1.813 0.0528 0.853 0.0424 0.875-0.0211 1.269-0.1163 0 0 0.8-0.2644 1.11-0.8672 0 0 0.736-1.1211 0.544-1.8826 0 0-0.064-0.5182-0.384-0.5182l-0.011-0.0106z" fill="#fff"/>
<path d="m585.9 5.0659c-0.32 0-0.288 0.23267-0.288 0.40189 0 0 0.074 1.0576-1.76 0.89896-1.824-0.15864-3.595 0.30671-3.99 0.4442-0.394 0.13749-2.101 0.60283-2.976 2.221-0.864 1.6182-0.597 2.2527-0.213 2.9825 0.384 0.7192 1.429 0.6874 1.856 0.5711 0.299-0.0846 0.661-0.2433 0.811-0.4759 0 0 0.565 0.5182 1.184 0.3807 0 0-0.907 3.3844-2.198 3.8708-0.618 0.2327-0.48 0.2645-1.269 0.1798 0 0-0.533-0.2115-0.245-0.7086 0 0 1.344-0.1374 0.896-1.2585 0 0-0.736-0.9095-1.899 0.074 0 0-0.747 0.7615-0.309 1.6393 0.437 0.8778 0.981 1.0259 1.717 1.248 0.352 0.1058 1.269 0.0106 1.643-0.0952 0 0 2.133-0.4442 2.922-2.9401 0 0 0.438-1.3009 0.416-2.4748 0 0 0.502-0.5394 0.971-0.5288 0 0-0.256 1.0999 0.267 1.0258 0 0 0.704-0.0317 0.938-0.8143 0 0 0.31-0.7509-0.149-1.174 0 0-0.448-0.53934-2.027 0.7298 0 0-0.128-0.7932 0.982-2.1152 0 0 0.074-0.30671-0.139-0.35959 0 0-0.277-0.08461-0.608 0.19037-0.331 0.28555-1.067 0.81436-1.707 2.919 0 0-0.565 0.2749-0.896-0.1375 0 0 0.587-0.6769 0.491-1.0894-0.096-0.4124-0.245-0.70857-0.736-0.71914-0.491-0.01058-0.843 0.64514-0.853 0.76144 0 0.1164-0.139 0.4231 0.192 1.0471 0 0-1.088 0.6134-1.302-0.5711 0 0-0.384-1.7662 2.294-2.496 0 0 0.949-0.27498 1.642-0.28556 0.694 0 0.992 0.01058 1.814 0.05288 0.853 0.04231 0.874-0.02115 1.269-0.11633 0 0 0.8-0.26441 1.109-0.86724 0 0 0.736-1.1211 0.544-1.8825 0 0-0.064-0.51823-0.384-0.51823l-0.01-0.01057z" fill="#fff"/>
<path d="M877.035 0H853.334V23.5H877.035V0Z" fill="#287851"/>
<path d="M924.44 0H900.738V23.5H924.44V0Z" fill="#287851"/>
<path d="M900.737 23.5H877.035V47H900.737V23.5Z" fill="#287851"/>
<path d="M971.85 0H948.148V23.5H971.85V0Z" fill="#287851"/>
<path d="M948.151 23.5H924.449V47H948.151V23.5Z" fill="#287851"/>
<path d="M1019.25 0H995.551V23.5H1019.25V0Z" fill="#287851"/>
<path d="M995.553 23.5H971.851V47H995.553V23.5Z" fill="#287851"/>
<path d="m1066.7 0h-23.71v23.5h23.71v-23.5z" fill="#287851"/>
<path d="m1043 23.5h-23.7v23.5h23.7v-23.5z" fill="#287851"/>
<path d="m1090.4 23.5h-23.7v23.5h23.7v-23.5z" fill="#287851"/>
<path d="m870.66 4.5794c-0.32 0-0.288 0.23267-0.288 0.40189 0 0 0.074 1.0576-1.76 0.89896-1.824-0.15864-3.595 0.30671-3.99 0.4442-0.394 0.13749-2.101 0.60283-2.976 2.221-0.864 1.6182-0.597 2.2527-0.213 2.9825 0.384 0.7191 1.429 0.6874 1.856 0.5711 0.299-0.0846 0.661-0.2433 0.811-0.4759 0 0 0.565 0.5182 1.184 0.3807 0 0-0.907 3.3843-2.198 3.8708-0.618 0.2327-0.48 0.2644-1.269 0.1798 0 0-0.533-0.2115-0.245-0.7086 0 0 1.344-0.1375 0.896-1.2585 0 0-0.736-0.9096-1.899 0.074 0 0-0.747 0.7615-0.309 1.6393 0.437 0.8778 0.981 1.0259 1.717 1.248 0.352 0.1057 1.269 0.0106 1.643-0.0952 0 0 2.133-0.4442 2.922-2.9401 0 0 0.438-1.3009 0.416-2.4748 0 0 0.502-0.5394 0.971-0.5288 0 0-0.256 1.0999 0.267 1.0258 0 0 0.704-0.0317 0.938-0.8143 0 0 0.31-0.7509-0.149-1.174 0 0-0.448-0.53935-2.027 0.7298 0 0-0.128-0.79323 0.982-2.1152 0 0 0.074-0.30671-0.139-0.35959 0 0-0.277-0.08461-0.608 0.19037-0.331 0.28555-1.067 0.81435-1.707 2.919 0 0-0.565 0.275-0.896-0.1374 0 0 0.587-0.6769 0.491-1.0894-0.096-0.41245-0.245-0.70858-0.736-0.71915-0.491-0.01058-0.843 0.64515-0.853 0.76145 0 0.1164-0.139 0.4231 0.192 1.0471 0 0-1.088 0.6134-1.302-0.5712 0 0-0.384-1.7662 2.294-2.4959 0 0 0.949-0.27498 1.642-0.28556 0.694 0 0.992 0.01058 1.814 0.05288 0.853 0.04231 0.874-0.02115 1.269-0.11634 0 0 0.8-0.2644 1.109-0.86723 0 0 0.736-1.1211 0.544-1.8825 0 0-0.064-0.51823-0.384-0.51823l-0.01-0.01057z" fill="#fff"/>
<path d="m1114.1 0h-23.7v23.5h23.7v-23.5z" fill="#287851"/>
<path d="m1161.5 0h-23.7v23.5h23.7v-23.5z" fill="#287851"/>
<path d="m1137.8 23.5h-23.7v23.5h23.7v-23.5z" fill="#287851"/>
<path d="m1208.9 0h-23.7v23.5h23.7v-23.5z" fill="#287851"/>
<path d="m1185.2 23.5h-23.7v23.5h23.7v-23.5z" fill="#287851"/>
<path d="M1256.3 0H1232.6V23.5H1256.3V0Z" fill="#287851"/>
<path d="m1232.6 23.5h-23.7v23.5h23.7v-23.5z" fill="#287851"/>
<path d="M1280 23.5H1256.3V47H1280V23.5Z" fill="#287851"/>
<path d="m1155.1 5.0659c-0.32 0-0.28 0.23267-0.28 0.40189 0 0 0.07 1.0576-1.76 0.89896s-3.6 0.30671-3.99 0.4442c-0.4 0.13749-2.1 0.60283-2.98 2.221-0.86 1.6182-0.6 2.2527-0.21 2.9825 0.38 0.7192 1.43 0.6874 1.85 0.5711 0.3-0.0846 0.66-0.2433 0.81-0.4759 0 0 0.57 0.5182 1.19 0.3807 0 0-0.91 3.3844-2.2 3.8708-0.62 0.2327-0.48 0.2645-1.27 0.1798 0 0-0.53-0.2115-0.24-0.7086 0 0 1.34-0.1374 0.89-1.2585 0 0-0.73-0.9095-1.9 0.074 0 0-0.74 0.7615-0.31 1.6393 0.44 0.8778 0.99 1.0259 1.72 1.248 0.35 0.1058 1.27 0.0106 1.64-0.0952 0 0 2.14-0.4442 2.93-2.9401 0 0 0.43-1.3009 0.41-2.4748 0 0 0.5-0.5394 0.97-0.5288 0 0-0.25 1.0999 0.27 1.0258 0 0 0.7-0.0317 0.94-0.8143 0 0 0.31-0.7509-0.15-1.174 0 0-0.45-0.53934-2.03 0.7298 0 0-0.13-0.7932 0.98-2.1152 0 0 0.08-0.30671-0.13-0.35959 0 0-0.28-0.08461-0.61 0.19037-0.33 0.28555-1.07 0.81436-1.71 2.919 0 0-0.56 0.2749-0.9-0.1375 0 0 0.59-0.6769 0.5-1.0894-0.1-0.4124-0.25-0.70857-0.74-0.71914-0.49-0.01058-0.84 0.64514-0.85 0.76144 0 0.1164-0.14 0.4231 0.19 1.0471 0 0-1.09 0.6134-1.3-0.5711 0 0-0.39-1.7662 2.29-2.496 0 0 0.95-0.27498 1.64-0.28556 0.7 0 0.99 0.01058 1.82 0.05288 0.85 0.04231 0.87-0.02115 1.27-0.11633 0 0 0.8-0.26441 1.1-0.86724 0 0 0.74-1.1211 0.55-1.8825 0 0-0.07-0.51823-0.39-0.51823l-0.01-0.01057z" fill="#fff"/>
<path d="m1226.2 29.01c-0.32 0-0.28 0.2327-0.28 0.4019 0 0 0.07 1.0576-1.76 0.899-1.83-0.1587-3.6 0.3067-3.99 0.4442-0.4 0.1375-2.1 0.6028-2.98 2.221-0.86 1.6181-0.6 2.2527-0.21 2.9824 0.38 0.7192 1.43 0.6874 1.85 0.5711 0.3-0.0846 0.67-0.2432 0.81-0.4759 0 0 0.57 0.5182 1.19 0.3807 0 0-0.91 3.3844-2.2 3.8709-0.62 0.2326-0.48 0.2644-1.27 0.1798 0 0-0.53-0.2116-0.24-0.7086 0 0 1.34-0.1375 0.89-1.2586 0 0-0.73-0.9095-1.9 0.074 0 0-0.74 0.7615-0.31 1.6393 0.44 0.8778 0.99 1.0259 1.72 1.248 0.35 0.1058 1.27 0.0106 1.64-0.0952 0 0 2.14-0.4442 2.93-2.9401 0 0 0.43-1.3009 0.41-2.4748 0 0 0.5-0.5394 0.97-0.5288 0 0-0.25 1.0999 0.27 1.0259 0 0 0.7-0.0318 0.94-0.8144 0 0 0.31-0.7509-0.15-1.1739 0 0-0.45-0.5394-2.03 0.7297 0 0-0.12-0.7932 0.98-2.1152 0 0 0.08-0.3067-0.13-0.3596 0 0-0.28-0.0846-0.61 0.1904-0.33 0.2855-1.07 0.8143-1.71 2.919 0 0-0.56 0.2749-0.89-0.1375 0 0 0.58-0.6769 0.49-1.0894-0.1-0.4124-0.25-0.7086-0.74-0.7191-0.49-0.0106-0.84 0.6451-0.85 0.7614 0 0.1164-0.14 0.4231 0.19 1.0471 0 0-1.09 0.6134-1.3-0.5711 0 0-0.39-1.7662 2.29-2.496 0 0 0.95-0.275 1.64-0.2855 0.7 0 1 0.0105 1.82 0.0528 0.85 0.0424 0.87-0.0211 1.27-0.1163 0 0 0.8-0.2644 1.11-0.8672 0 0 0.73-1.1211 0.54-1.8826 0 0-0.06-0.5182-0.38-0.5182l-0.02-0.0106z" fill="#fff"/>
<path d="m942.05 29.01c-0.32 0-0.288 0.2327-0.288 0.4019 0 0 0.075 1.0576-1.76 0.899-1.824-0.1587-3.595 0.3067-3.989 0.4442-0.395 0.1375-2.102 0.6028-2.976 2.221-0.864 1.6181-0.598 2.2527-0.214 2.9824 0.384 0.7192 1.43 0.6874 1.856 0.5711 0.299-0.0846 0.662-0.2432 0.811-0.4759 0 0 0.565 0.5182 1.184 0.3807 0 0-0.907 3.3844-2.197 3.8709-0.619 0.2326-0.48 0.2644-1.27 0.1798 0 0-0.533-0.2116-0.245-0.7086 0 0 1.344-0.1375 0.896-1.2586 0 0-0.736-0.9095-1.899 0.074 0 0-0.746 0.7615-0.309 1.6393s0.981 1.0259 1.717 1.248c0.352 0.1058 1.27 0.0106 1.643-0.0952 0 0 2.133-0.4442 2.923-2.9401 0 0 0.437-1.3009 0.416-2.4748 0 0 0.501-0.5394 0.97-0.5288 0 0-0.256 1.0999 0.267 1.0259 0 0 0.704-0.0318 0.939-0.8144 0 0 0.309-0.7509-0.15-1.1739 0 0-0.448-0.5394-2.026 0.7297 0 0-0.128-0.7932 0.981-2.1152 0 0 0.075-0.3067-0.139-0.3596 0 0-0.277-0.0846-0.608 0.1904-0.33 0.2855-1.066 0.8143-1.706 2.919 0 0-0.566 0.2749-0.896-0.1375 0 0 0.586-0.6769 0.49-1.0894-0.096-0.4124-0.245-0.7086-0.736-0.7191-0.49-0.0106-0.842 0.6451-0.853 0.7614 0 0.1164-0.139 0.4231 0.192 1.0471 0 0-1.088 0.6134-1.301-0.5711 0 0-0.384-1.7662 2.293-2.496 0 0 0.949-0.275 1.643-0.2855 0.693 0 0.992 0.0105 1.813 0.0528 0.853 0.0424 0.875-0.0211 1.269-0.1163 0 0 0.8-0.2644 1.11-0.8672 0 0 0.736-1.1211 0.544-1.8826 0 0-0.064-0.5182-0.384-0.5182l-0.011-0.0106z" fill="#fff"/>
<path d="m1083.6 29.01c-0.32 0-0.29 0.2327-0.29 0.4019 0 0 0.08 1.0576-1.76 0.899-1.82-0.1587-3.59 0.3067-3.98 0.4442-0.4 0.1375-2.11 0.6028-2.98 2.221-0.86 1.6181-0.6 2.2527-0.21 2.9824 0.38 0.7192 1.43 0.6874 1.85 0.5711 0.3-0.0846 0.66-0.2432 0.81-0.4759 0 0 0.57 0.5182 1.19 0.3807 0 0-0.91 3.3844-2.2 3.8709-0.62 0.2326-0.48 0.2644-1.27 0.1798 0 0-0.53-0.2116-0.25-0.7086 0 0 1.35-0.1375 0.9-1.2586 0 0-0.74-0.9095-1.9 0.074 0 0-0.74 0.7615-0.31 1.6393 0.44 0.8778 0.98 1.0259 1.72 1.248 0.35 0.1058 1.27 0.0106 1.64-0.0952 0 0 2.14-0.4442 2.93-2.9401 0 0 0.43-1.3009 0.41-2.4748 0 0 0.5-0.5394 0.97-0.5288 0 0-0.25 1.0999 0.27 1.0259 0 0 0.7-0.0318 0.94-0.8144 0 0 0.31-0.7509-0.15-1.1739 0 0-0.45-0.5394-2.03 0.7297 0 0-0.13-0.7932 0.98-2.1152 0 0 0.08-0.3067-0.14-0.3596 0 0-0.27-0.0846-0.6 0.1904-0.33 0.2855-1.07 0.8143-1.71 2.919 0 0-0.57 0.2749-0.9-0.1375 0 0 0.59-0.6769 0.49-1.0894-0.09-0.4124-0.24-0.7086-0.73-0.7191-0.49-0.0106-0.84 0.6451-0.86 0.7614 0 0.1164-0.13 0.4231 0.2 1.0471 0 0-1.09 0.6134-1.3-0.5711 0 0-0.39-1.7662 2.29-2.496 0 0 0.95-0.275 1.64-0.2855 0.69 0 0.99 0.0105 1.82 0.0528 0.85 0.0424 0.87-0.0211 1.26-0.1163 0 0 0.8-0.2644 1.11-0.8672 0 0 0.74-1.1211 0.55-1.8826 0 0-0.07-0.5182-0.39-0.5182l-0.01-0.0106z" fill="#fff"/>
<path d="m1012.6 5.0659c-0.32 0-0.28 0.23267-0.28 0.40189 0 0 0.07 1.0576-1.76 0.89896s-3.6 0.30671-3.99 0.4442c-0.4 0.13749-2.1 0.60283-2.98 2.221-0.86 1.6182-0.6 2.2527-0.21 2.9825 0.38 0.7192 1.43 0.6874 1.85 0.5711 0.3-0.0846 0.67-0.2433 0.81-0.4759 0 0 0.57 0.5182 1.19 0.3807 0 0-0.91 3.3844-2.2 3.8708-0.62 0.2327-0.48 0.2645-1.27 0.1798 0 0-0.53-0.2115-0.24-0.7086 0 0 1.34-0.1374 0.89-1.2585 0 0-0.73-0.9095-1.9 0.074 0 0-0.74 0.7615-0.31 1.6393 0.44 0.8778 0.99 1.0259 1.72 1.248 0.35 0.1058 1.27 0.0106 1.64-0.0952 0 0 2.14-0.4442 2.93-2.9401 0 0 0.43-1.3009 0.41-2.4748 0 0 0.5-0.5394 0.97-0.5288 0 0-0.25 1.0999 0.27 1.0258 0 0 0.7-0.0317 0.94-0.8143 0 0 0.31-0.7509-0.15-1.174 0 0-0.45-0.53934-2.03 0.7298 0 0-0.12-0.7932 0.98-2.1152 0 0 0.08-0.30671-0.13-0.35959 0 0-0.28-0.08461-0.61 0.19037-0.33 0.28555-1.07 0.81436-1.71 2.919 0 0-0.56 0.2749-0.89-0.1375 0 0 0.58-0.6769 0.49-1.0894-0.1-0.4124-0.25-0.70857-0.74-0.71914-0.49-0.01058-0.84 0.64514-0.85 0.76144 0 0.1164-0.14 0.4231 0.19 1.0471 0 0-1.09 0.6134-1.3-0.5711 0 0-0.39-1.7662 2.29-2.496 0 0 0.95-0.27498 1.64-0.28556 0.7 0 1 0.01058 1.82 0.05288 0.85 0.04231 0.87-0.02115 1.27-0.11633 0 0 0.8-0.26441 1.11-0.86724 0 0 0.73-1.1211 0.54-1.8825 0 0-0.06-0.51823-0.38-0.51823l-0.02-0.01057z" fill="#fff"/>
</svg>
